<svg width="28" height="28" viewBox="0 0 28 28" fill="none" xmlns="http://www.w3.org/2000/svg">
<g clip-path="url(#clip0_27_3)">
<path d="M28 14.0867C28 6.30567 21.7327 0 14.001 0C6.26734 0 0 6.30567 0 14.0867C0 21.1166 5.11888 26.9436 11.8128 28V18.1577H8.2587V14.0867H11.8128V10.9833C11.8128 7.45291 13.9026 5.50302 17.1019 5.50302C18.6318 5.50302 20.2356 5.77745 20.2356 5.77745V9.24392H18.4698C16.7307 9.24392 16.1872 10.3293 16.1872 11.4435V14.0867H20.0715L19.4501 18.1577H16.1872V28C22.8811 26.9436 28 21.1166 28 14.0867Z" fill="#1877F2"/>
<path d="M19.5 18.5L20.5 14H16.5V11C16.5 10 16.7575 9.5 18.5 9.5H20.5V5C20.5 5 18.3932 5 16.8603 5C13.6548 5 11.561 6.97843 11.561 10.5605V14H8V18.5H11.561V27.8262C11.7418 27.8555 11.9233 27.8814 12.1055 27.9037C12.2877 27.9246 12.4705 27.9428 12.6541 27.9581C12.8363 27.9721 13.0192 27.9826 13.2027 27.9895C13.3863 27.9965 13.5699 28 13.7534 28C14.4993 28 15.787 28.0733 16.5 27.9581V18.5H19.5Z" fill="white"/>
</g>
<defs>
<clipPath id="clip0_27_3">
<rect width="28" height="28" fill="white"/>
</clipPath>
</defs>
</svg>
