<svg width="195" height="32" viewBox="0 0 195 32" fill="none" xmlns="http://www.w3.org/2000/svg">
<path d="M34.0249 12.0722H40.0514C39.4078 10.3149 37.6525 5.33623 32.4451 2.23185C28.2792 -0.251664 23.61 -0.169662 21.7962 0.181778C10.5622 2.1147 8.39735 10.2564 7.5782 14.0051C6.92289 17.004 7.85125 20.9167 8.39735 22.4982C9.98883 23.4823 14.6775 24.6654 16.8228 25.134C13.7335 22.4631 12.9221 18.5933 12.9026 16.9923C12.9963 12.447 15.2821 9.51445 16.4133 8.61632C18.8005 5.85166 23.454 5.43384 25.4824 5.57051C30.5845 6.32025 33.3032 10.2173 34.0249 12.0722Z" fill="#2F73F2"/>
<path d="M24.9558 15.0594H40.6365C40.9642 17.4492 40.11 20.8191 39.6419 22.2054C37.3015 23.658 33.2057 24.5678 31.4504 24.8412C32.9483 23.6228 33.9469 21.5611 34.2589 20.6825H24.9558V15.0594Z" fill="#2F73F2"/>
<path d="M41.9823 17.2852V15.6451C46.8035 17.6601 47.9698 20.6629 47.9503 21.9125C48.4652 24.5834 44.8493 27.0865 42.977 28.0041C33.0068 33.5334 18.1881 32.1433 12.025 30.7571C1.68036 28.0393 -0.281681 23.8064 0.0303737 22.0296C0.077182 18.8432 4.02858 16.4456 5.99843 15.6451V17.2852C3.42397 20.5653 6.52502 23.494 8.39735 24.5483C19.4909 29.7027 32.4451 27.3598 37.5355 25.544C44.5099 22.3576 43.406 18.7105 41.9823 17.2852Z" fill="#2F73F2"/>
<path d="M68.22 26.36C66.24 26.36 64.51 25.91 63.03 25.01C61.55 24.11 60.4 22.86 59.58 21.26C58.76 19.64 58.35 17.76 58.35 15.62C58.35 13.46 58.77 11.56 59.61 9.92C60.47 8.26 61.68 6.97 63.24 6.05C64.82 5.11 66.69 4.64 68.85 4.64C71.31 4.64 73.35 5.23 74.97 6.41C76.59 7.59 77.64 9.22 78.12 11.3H73.83C73.51 10.32 72.93 9.56 72.09 9.02C71.25 8.46 70.17 8.18 68.85 8.18C66.75 8.18 65.13 8.85 63.99 10.19C62.85 11.51 62.28 13.33 62.28 15.65C62.28 17.97 62.84 19.77 63.96 21.05C65.1 22.31 66.64 22.94 68.58 22.94C70.48 22.94 71.91 22.43 72.87 21.41C73.85 20.37 74.44 19.01 74.64 17.33H69.33V14.45H78.51V26H74.97L74.67 23.24C73.99 24.24 73.14 25.01 72.12 25.55C71.1 26.09 69.8 26.36 68.22 26.36Z" fill="white"/>
<path d="M82.1531 26V11.12H85.5731L85.9331 13.91C86.4731 12.95 87.2031 12.19 88.1231 11.63C89.0631 11.05 90.1631 10.76 91.4231 10.76V14.81H90.3431C89.5031 14.81 88.7531 14.94 88.0931 15.2C87.4331 15.46 86.9131 15.91 86.5331 16.55C86.1731 17.19 85.9931 18.08 85.9931 19.22V26H82.1531Z" fill="white"/>
<path d="M99.1777 26.36C97.8977 26.36 96.8477 26.16 96.0277 25.76C95.2077 25.34 94.5977 24.79 94.1977 24.11C93.7977 23.43 93.5977 22.68 93.5977 21.86C93.5977 20.48 94.1377 19.36 95.2177 18.5C96.2977 17.64 97.9177 17.21 100.078 17.21H103.858V16.85C103.858 15.83 103.568 15.08 102.988 14.6C102.408 14.12 101.688 13.88 100.828 13.88C100.048 13.88 99.3677 14.07 98.7877 14.45C98.2077 14.81 97.8477 15.35 97.7077 16.07H93.9577C94.0577 14.99 94.4177 14.05 95.0377 13.25C95.6777 12.45 96.4977 11.84 97.4977 11.42C98.4977 10.98 99.6177 10.76 100.858 10.76C102.978 10.76 104.648 11.29 105.868 12.35C107.088 13.41 107.698 14.91 107.698 16.85V26H104.428L104.068 23.6C103.628 24.4 103.008 25.06 102.208 25.58C101.428 26.1 100.418 26.36 99.1777 26.36ZM100.048 23.36C101.148 23.36 101.998 23 102.598 22.28C103.218 21.56 103.608 20.67 103.768 19.61H100.498C99.4777 19.61 98.7477 19.8 98.3077 20.18C97.8677 20.54 97.6477 20.99 97.6477 21.53C97.6477 22.11 97.8677 22.56 98.3077 22.88C98.7477 23.2 99.3277 23.36 100.048 23.36Z" fill="white"/>
<path d="M111.362 26V11.12H114.752L115.082 13.13C115.562 12.41 116.192 11.84 116.972 11.42C117.772 10.98 118.692 10.76 119.732 10.76C122.032 10.76 123.662 11.65 124.622 13.43C125.162 12.61 125.882 11.96 126.782 11.48C127.702 11 128.702 10.76 129.782 10.76C131.722 10.76 133.212 11.34 134.252 12.5C135.292 13.66 135.812 15.36 135.812 17.6V26H131.972V17.96C131.972 16.68 131.722 15.7 131.222 15.02C130.742 14.34 129.992 14 128.972 14C127.932 14 127.092 14.38 126.452 15.14C125.832 15.9 125.522 16.96 125.522 18.32V26H121.682V17.96C121.682 16.68 121.432 15.7 120.932 15.02C120.432 14.34 119.662 14 118.622 14C117.602 14 116.772 14.38 116.132 15.14C115.512 15.9 115.202 16.96 115.202 18.32V26H111.362Z" fill="white"/>
<path d="M139.458 26V11.12H142.848L143.178 13.13C143.658 12.41 144.288 11.84 145.068 11.42C145.868 10.98 146.788 10.76 147.828 10.76C150.128 10.76 151.758 11.65 152.718 13.43C153.258 12.61 153.978 11.96 154.878 11.48C155.798 11 156.798 10.76 157.878 10.76C159.818 10.76 161.308 11.34 162.348 12.5C163.388 13.66 163.908 15.36 163.908 17.6V26H160.068V17.96C160.068 16.68 159.818 15.7 159.318 15.02C158.838 14.34 158.088 14 157.068 14C156.028 14 155.188 14.38 154.548 15.14C153.928 15.9 153.618 16.96 153.618 18.32V26H149.778V17.96C149.778 16.68 149.528 15.7 149.028 15.02C148.528 14.34 147.758 14 146.718 14C145.698 14 144.868 14.38 144.228 15.14C143.608 15.9 143.298 16.96 143.298 18.32V26H139.458Z" fill="white"/>
<path d="M172.684 26.36C171.404 26.36 170.354 26.16 169.534 25.76C168.714 25.34 168.104 24.79 167.704 24.11C167.304 23.43 167.104 22.68 167.104 21.86C167.104 20.48 167.644 19.36 168.724 18.5C169.804 17.64 171.424 17.21 173.584 17.21H177.364V16.85C177.364 15.83 177.074 15.08 176.494 14.6C175.914 14.12 175.194 13.88 174.334 13.88C173.554 13.88 172.874 14.07 172.294 14.45C171.714 14.81 171.354 15.35 171.214 16.07H167.464C167.564 14.99 167.924 14.05 168.544 13.25C169.184 12.45 170.004 11.84 171.004 11.42C172.004 10.98 173.124 10.76 174.364 10.76C176.484 10.76 178.154 11.29 179.374 12.35C180.594 13.41 181.204 14.91 181.204 16.85V26H177.934L177.574 23.6C177.134 24.4 176.514 25.06 175.714 25.58C174.934 26.1 173.924 26.36 172.684 26.36ZM173.554 23.36C174.654 23.36 175.504 23 176.104 22.28C176.724 21.56 177.114 20.67 177.274 19.61H174.004C172.984 19.61 172.254 19.8 171.814 20.18C171.374 20.54 171.154 20.99 171.154 21.53C171.154 22.11 171.374 22.56 171.814 22.88C172.254 23.2 172.834 23.36 173.554 23.36Z" fill="white"/>
<path d="M184.868 26V11.12H188.288L188.648 13.91C189.188 12.95 189.918 12.19 190.838 11.63C191.778 11.05 192.878 10.76 194.138 10.76V14.81H193.058C192.218 14.81 191.468 14.94 190.808 15.2C190.148 15.46 189.628 15.91 189.248 16.55C188.888 17.19 188.708 18.08 188.708 19.22V26H184.868Z" fill="white"/>
</svg>
